#Comment line ignore any data following # character 
#Hierarchical Translation and Rotation (.htr) file 
[Header]	
#Header keywords are followed by a single value 
FileType HTR		#Single word string
DataType HTRS		#Translation followed by rotation and scale data
FileVersion 1		#integer
NumSegments 84		#integer
NumFrames 2		#integer
DataFrameRate 30		#integer, data frame rate in this file
EulerRotationOrder ZYX
CalibrationUnits mm
RotationUnits Degrees
GlobalAxisofGravity Y
BoneLengthAxis Y
ScaleFactor 1.00
[SegmentNames&Hierarchy]
#CHILD	PARENT
MASTER GLOBAL
root MASTER
chest root
L_mid_tent01 root
R_mid_tent01 root
spine01 root
Bip01_Neck chest
L_humerus chest
R_humerus chest
weapon_bone chest
Bip01_Head Bip01_Neck
eye_left_bone Bip01_Head
eye_right_bone Bip01_Head
L_forearm L_humerus
L_front_hand L_forearm
L_weapon_bone L_forearm
L_front_hand01_01 L_front_hand
L_front_hand02_01 L_front_hand
L_front_hand03_01 L_front_hand
L_front_hand01_02 L_front_hand01_01
L_front_hand02_02 L_front_hand02_01
L_front_hand03_02 L_front_hand03_01
R_forearm R_humerus
R_front_hand R_forearm
R_weapon_bone R_forearm
R_front_hand01_01 R_front_hand
R_front_hand02_01 R_front_hand
R_front_hand03_01 R_front_hand
R_front_hand01_02 R_front_hand01_01
R_front_hand02_02 R_front_hand02_01
R_front_hand03_02 R_front_hand03_01
null_rope01_connect L_mid_tent01
Rope1_Seg01 null_rope01_connect
Rope1_Seg02 Rope1_Seg01
Rope1_Seg03 Rope1_Seg02
Rope1_Seg04 Rope1_Seg03
Rope1_Seg05 Rope1_Seg04
Rope1_Seg06 Rope1_Seg05
Rope1_Seg07 Rope1_Seg06
Rope1_Seg09 Rope1_Seg07
L_mid_hand01 Rope1_Seg09
L_mid_hand02 Rope1_Seg09
L_mid_hand03 Rope1_Seg09
null_rope02_connect R_mid_tent01
Rope2_Seg01 null_rope02_connect
Rope2_Seg02 Rope2_Seg01
Rope2_Seg03 Rope2_Seg02
Rope2_Seg04 Rope2_Seg03
Rope2_Seg05 Rope2_Seg04
Rope2_Seg06 Rope2_Seg05
Rope2_Seg07 Rope2_Seg06
Rope2_Seg09 Rope2_Seg07
R_mid_hand01 Rope2_Seg09
R_mid_hand02 Rope2_Seg09
R_mid_hand03 Rope2_Seg09
spine02 spine01
spine03 spine02
pelvis spine03
null_rope03_connect pelvis
null_rope04_connect pelvis
Rope3_Seg01 null_rope03_connect
Rope3_Seg02 Rope3_Seg01
Rope3_Seg03 Rope3_Seg02
Rope3_Seg04 Rope3_Seg03
Rope3_Seg05 Rope3_Seg04
Rope3_Seg06 Rope3_Seg05
Rope3_Seg07 Rope3_Seg06
Rope3_Seg08 Rope3_Seg07
Rope3_Seg09 Rope3_Seg08
R_rear_hand01 Rope3_Seg09
R_rear_hand02 Rope3_Seg09
R_rear_hand03 Rope3_Seg09
Rope4_Seg01 null_rope04_connect
Rope4_Seg02 Rope4_Seg01
Rope4_Seg03 Rope4_Seg02
Rope4_Seg04 Rope4_Seg03
Rope4_Seg05 Rope4_Seg04
Rope4_Seg06 Rope4_Seg05
Rope4_Seg07 Rope4_Seg06
Rope4_Seg08 Rope4_Seg07
Rope4_Seg09 Rope4_Seg08
L_rear_hand01 Rope4_Seg09
L_rear_hand02 Rope4_Seg09
L_rear_hand03 Rope4_Seg09
[BasePosition]
#SegmentName Tx, Ty, Tz, Rx, Ry, Rz, BoneLength
MASTER 0.000000 0.000000 0.000000 -90.000000 0.000000 0.000000 10.000000 
root 0.000000 0.000000 0.000000 0.000000 0.000000 0.000000 10.000000 
chest 0.000000 0.000000 0.000000 0.000000 0.000000 0.000000 10.000000 
L_mid_tent01 0.000000 0.000000 0.000000 0.000000 0.000000 0.000000 10.000000 
R_mid_tent01 0.000000 0.000000 0.000000 0.000000 0.000000 0.000000 10.000000 
spine01 0.000000 0.000000 0.000000 0.000000 0.000000 0.000000 10.000000 
Bip01_Neck 0.000000 0.000000 0.000000 0.000000 0.000000 0.000000 10.000000 
L_humerus 0.000000 0.000000 0.000000 0.000000 0.000000 0.000000 10.000000 
R_humerus 0.000000 0.000000 0.000000 0.000000 0.000000 0.000000 10.000000 
weapon_bone 0.000000 0.000000 0.000000 0.000000 0.000000 0.000000 10.000000 
Bip01_Head 0.000000 0.000000 0.000000 0.000000 0.000000 0.000000 10.000000 
eye_left_bone 0.000000 0.000000 0.000000 0.000000 0.000000 0.000000 10.000000 
eye_right_bone 0.000000 0.000000 0.000000 0.000000 0.000000 0.000000 10.000000 
L_forearm 0.000000 0.000000 0.000000 0.000000 0.000000 0.000000 10.000000 
L_front_hand 0.000000 0.000000 0.000000 0.000000 0.000000 0.000000 10.000000 
L_weapon_bone 0.000000 0.000000 0.000000 0.000000 0.000000 0.000000 10.000000 
L_front_hand01_01 0.000000 0.000000 0.000000 0.000000 0.000000 0.000000 10.000000 
L_front_hand02_01 0.000000 0.000000 0.000000 0.000000 0.000000 0.000000 10.000000 
L_front_hand03_01 0.000000 0.000000 0.000000 0.000000 0.000000 0.000000 10.000000 
L_front_hand01_02 0.000000 0.000000 0.000000 0.000000 0.000000 0.000000 10.000000 
L_front_hand02_02 0.000000 0.000000 0.000000 0.000000 0.000000 0.000000 10.000000 
L_front_hand03_02 0.000000 0.000000 0.000000 0.000000 0.000000 0.000000 10.000000 
R_forearm 0.000000 0.000000 0.000000 0.000000 0.000000 0.000000 10.000000 
R_front_hand 0.000000 0.000000 0.000000 0.000000 0.000000 0.000000 10.000000 
R_weapon_bone 0.000000 0.000000 0.000000 0.000000 0.000000 0.000000 10.000000 
R_front_hand01_01 0.000000 0.000000 0.000000 0.000000 0.000000 0.000000 10.000000 
R_front_hand02_01 0.000000 0.000000 0.000000 0.000000 0.000000 0.000000 10.000000 
R_front_hand03_01 0.000000 0.000000 0.000000 0.000000 0.000000 0.000000 10.000000 
R_front_hand01_02 0.000000 0.000000 0.000000 0.000000 0.000000 0.000000 10.000000 
R_front_hand02_02 0.000000 0.000000 0.000000 0.000000 0.000000 0.000000 10.000000 
R_front_hand03_02 0.000000 0.000000 0.000000 0.000000 0.000000 0.000000 10.000000 
null_rope01_connect 0.000000 0.000000 0.000000 0.000000 0.000000 0.000000 10.000000 
Rope1_Seg01 0.000000 0.000000 0.000000 0.000000 0.000000 0.000000 10.000000 
Rope1_Seg02 0.000000 0.000000 0.000000 0.000000 0.000000 0.000000 10.000000 
Rope1_Seg03 0.000000 0.000000 0.000000 0.000000 0.000000 0.000000 10.000000 
Rope1_Seg04 0.000000 0.000000 0.000000 0.000000 0.000000 0.000000 10.000000 
Rope1_Seg05 0.000000 0.000000 0.000000 0.000000 0.000000 0.000000 10.000000 
Rope1_Seg06 0.000000 0.000000 0.000000 0.000000 0.000000 0.000000 10.000000 
Rope1_Seg07 0.000000 0.000000 0.000000 0.000000 0.000000 0.000000 10.000000 
Rope1_Seg09 0.000000 0.000000 0.000000 0.000000 0.000000 0.000000 10.000000 
L_mid_hand01 0.000000 0.000000 0.000000 0.000000 0.000000 0.000000 10.000000 
L_mid_hand02 0.000000 0.000000 0.000000 0.000000 0.000000 0.000000 10.000000 
L_mid_hand03 0.000000 0.000000 0.000000 0.000000 0.000000 0.000000 10.000000 
null_rope02_connect 0.000000 0.000000 0.000000 0.000000 0.000000 0.000000 10.000000 
Rope2_Seg01 0.000000 0.000000 0.000000 0.000000 0.000000 0.000000 10.000000 
Rope2_Seg02 0.000000 0.000000 0.000000 0.000000 0.000000 0.000000 10.000000 
Rope2_Seg03 0.000000 0.000000 0.000000 0.000000 0.000000 0.000000 10.000000 
Rope2_Seg04 0.000000 0.000000 0.000000 0.000000 0.000000 0.000000 10.000000 
Rope2_Seg05 0.000000 0.000000 0.000000 0.000000 0.000000 0.000000 10.000000 
Rope2_Seg06 0.000000 0.000000 0.000000 0.000000 0.000000 0.000000 10.000000 
Rope2_Seg07 0.000000 0.000000 0.000000 0.000000 0.000000 0.000000 10.000000 
Rope2_Seg09 0.000000 0.000000 0.000000 0.000000 0.000000 0.000000 10.000000 
R_mid_hand01 0.000000 0.000000 0.000000 0.000000 0.000000 0.000000 10.000000 
R_mid_hand02 0.000000 0.000000 0.000000 0.000000 0.000000 0.000000 10.000000 
R_mid_hand03 0.000000 0.000000 0.000000 0.000000 0.000000 0.000000 10.000000 
spine02 0.000000 0.000000 0.000000 0.000000 0.000000 0.000000 10.000000 
spine03 0.000000 0.000000 0.000000 0.000000 0.000000 0.000000 10.000000 
pelvis 0.000000 0.000000 0.000000 0.000000 0.000000 0.000000 10.000000 
null_rope03_connect 0.000000 0.000000 0.000000 0.000000 0.000000 0.000000 10.000000 
null_rope04_connect 0.000000 0.000000 0.000000 0.000000 0.000000 0.000000 10.000000 
Rope3_Seg01 0.000000 0.000000 0.000000 0.000000 0.000000 0.000000 10.000000 
Rope3_Seg02 0.000000 0.000000 0.000000 0.000000 0.000000 0.000000 10.000000 
Rope3_Seg03 0.000000 0.000000 0.000000 0.000000 0.000000 0.000000 10.000000 
Rope3_Seg04 0.000000 0.000000 0.000000 0.000000 0.000000 0.000000 10.000000 
Rope3_Seg05 0.000000 0.000000 0.000000 0.000000 0.000000 0.000000 10.000000 
Rope3_Seg06 0.000000 0.000000 0.000000 0.000000 0.000000 0.000000 10.000000 
Rope3_Seg07 0.000000 0.000000 0.000000 0.000000 0.000000 0.000000 10.000000 
Rope3_Seg08 0.000000 0.000000 0.000000 0.000000 0.000000 0.000000 10.000000 
Rope3_Seg09 0.000000 0.000000 0.000000 0.000000 0.000000 0.000000 10.000000 
R_rear_hand01 0.000000 0.000000 0.000000 0.000000 0.000000 0.000000 10.000000 
R_rear_hand02 0.000000 0.000000 0.000000 0.000000 0.000000 0.000000 10.000000 
R_rear_hand03 0.000000 0.000000 0.000000 0.000000 0.000000 0.000000 10.000000 
Rope4_Seg01 0.000000 0.000000 0.000000 0.000000 0.000000 0.000000 10.000000 
Rope4_Seg02 0.000000 0.000000 0.000000 0.000000 0.000000 0.000000 10.000000 
Rope4_Seg03 0.000000 0.000000 0.000000 0.000000 0.000000 0.000000 10.000000 
Rope4_Seg04 0.000000 0.000000 0.000000 0.000000 0.000000 0.000000 10.000000 
Rope4_Seg05 0.000000 0.000000 0.000000 0.000000 0.000000 0.000000 10.000000 
Rope4_Seg06 0.000000 0.000000 0.000000 0.000000 0.000000 0.000000 10.000000 
Rope4_Seg07 0.000000 0.000000 0.000000 0.000000 0.000000 0.000000 10.000000 
Rope4_Seg08 0.000000 0.000000 0.000000 0.000000 0.000000 0.000000 10.000000 
Rope4_Seg09 0.000000 0.000000 0.000000 0.000000 0.000000 0.000000 10.000000 
L_rear_hand01 0.000000 0.000000 0.000000 0.000000 0.000000 0.000000 10.000000 
L_rear_hand02 0.000000 0.000000 0.000000 0.000000 0.000000 0.000000 10.000000 
L_rear_hand03 0.000000 0.000000 0.000000 0.000000 0.000000 0.000000 10.000000 
#Beginning of Data. Separated by tabs
#Fr	Tx	Ty	Tz	Rx	Ry	Rz	SF
[MASTER]
14 -0.000456 3035.910156 2010.644409 0.001660 0.001660 0.001660 3641.351563
15 -0.000492 3276.857910 2093.202393 0.001660 0.001660 0.001660 3888.353516
[root]
14 100.027901 13.719779 1224.285645 -101.713158 -21.654049 -91.870140 1228.441772
15 95.800095 9.599915 1077.242676 -103.289284 -22.015276 -91.595375 1081.536743
[chest]
14 -84.512650 -34.090519 0.000000 2.497568 0.111008 -177.451401 91.129311
15 -84.512650 -34.090519 0.000000 3.039581 -0.021692 -176.261307 91.129311
[L_mid_tent01]
14 27.299101 22.179247 -249.918701 -1.885866 22.429565 67.340424 252.381699
15 27.299105 22.179258 -249.918701 -1.769308 23.520288 67.383713 252.381699
[R_mid_tent01]
14 23.228794 24.509907 226.238495 172.235687 -24.570974 59.992367 228.744751
15 23.228794 24.509907 226.238495 172.714935 -24.182539 58.704952 228.744751
[spine01]
14 -0.361383 -0.195265 0.000000 0.001957 0.001296 22.957842 0.410763
15 -0.361383 -0.195265 0.000000 0.001957 0.001296 22.969616 0.410763
[Bip01_Neck]
14 165.484543 71.581718 0.000119 176.643677 -1.657966 43.431908 180.302734
15 165.484543 71.581718 0.000119 176.643677 -1.657967 43.431911 180.302734
[L_humerus]
14 -13.983130 -135.272980 -120.471481 141.544876 75.945488 -127.378395 181.680161
15 -13.983130 -135.272980 -120.471481 137.160263 77.384857 -131.863922 181.680161
[R_humerus]
14 -13.983309 -135.273102 125.287651 -170.650848 -67.250488 -94.385536 184.909012
15 -13.983309 -135.273102 125.287651 -170.997131 -67.912308 -94.025459 184.909012
[weapon_bone]
14 235.964890 -300.705902 0.000000 0.000000 -89.951546 -128.212341 382.234833
15 235.964890 -300.705902 0.000000 0.000000 -89.951546 -128.212341 382.234833
[Bip01_Head]
14 213.673691 185.076447 20.027390 4.962490 2.797837 -43.898743 283.391663
15 213.664230 185.103607 19.678345 4.440152 -1.457900 -43.897720 283.377808
[eye_left_bone]
14 -24.626970 125.451866 -64.772606 0.000000 -90.000000 -99.840431 143.318359
15 -24.626970 125.451866 -64.772606 0.000000 -90.000000 -99.840431 143.318359
[eye_right_bone]
14 -24.626970 125.451866 64.327362 0.000000 -89.972023 80.156387 143.117676
15 -24.626970 125.451866 64.327362 0.000000 -89.980217 80.156380 143.117676
[L_forearm]
14 322.776093 0.000000 -0.000119 0.000142 -0.002343 -96.948761 322.776093
15 322.776093 0.000000 -0.000119 0.000148 -0.002343 -97.225914 322.776093
[L_front_hand]
14 241.149185 -0.042021 -3.300071 -176.760880 -1.835445 -27.424332 241.171753
15 241.149185 -0.042021 -3.300071 -176.432388 -1.835647 -27.423996 241.171753
[L_weapon_bone]
14 156.183838 0.000000 0.000000 0.000014 0.000007 0.000001 156.183838
15 156.183838 0.000000 0.000000 0.000014 0.000007 0.000001 156.183838
[L_front_hand01_01]
14 86.095154 20.947098 -0.655860 -0.289102 -0.524108 66.611084 88.609184
15 86.095154 20.947098 -0.655860 -0.279531 -0.529728 65.431473 88.609184
[L_front_hand02_01]
14 86.935165 -11.437475 24.513514 142.580521 -55.269005 -47.395390 91.046425
15 86.935165 -11.437475 24.513514 141.258118 -54.537659 -45.777599 91.046425
[L_front_hand03_01]
14 86.637497 -14.123976 -20.424902 -142.879868 53.494274 -49.391991 90.126129
15 86.637497 -14.123976 -20.424902 -141.638611 52.767319 -47.837204 90.126129
[L_front_hand01_02]
14 71.020905 -0.000179 0.000030 0.000315 -0.002326 -105.429550 71.020905
15 71.020905 -0.000179 0.000030 0.000315 -0.002326 -105.415054 71.020905
[L_front_hand02_02]
14 71.020927 -0.000119 0.000060 0.000315 -0.002326 -105.429550 71.020927
15 71.020927 -0.000119 0.000060 0.000315 -0.002326 -105.415054 71.020927
[L_front_hand03_02]
14 71.020905 -0.000060 0.000060 0.000315 -0.002326 -105.429550 71.020905
15 71.020905 -0.000060 0.000060 0.000315 -0.002326 -105.415054 71.020905
[R_forearm]
14 322.776428 -0.000060 0.000030 0.212693 0.018344 -95.486923 322.776428
15 322.776428 -0.000060 0.000030 0.212647 0.018864 -95.767258 322.776428
[R_front_hand]
14 238.847015 -0.006795 2.210259 8.323678 -10.646048 -26.315016 238.857239
15 238.847015 -0.006795 2.210259 10.162568 -10.644473 -26.316214 238.857239
[R_weapon_bone]
14 155.664093 0.002503 -0.000030 0.003487 0.001180 -90.988930 155.664078
15 155.664093 0.002503 -0.000030 0.003487 0.001180 -90.988930 155.664078
[R_front_hand01_01]
14 87.624611 14.231146 22.918642 -141.947067 -54.924732 46.726727 91.683487
15 87.624611 14.231146 22.918642 -140.102493 -53.853168 44.460335 91.683487
[R_front_hand02_01]
14 89.356956 14.367283 -19.491137 142.634140 53.329136 49.315861 92.579636
15 89.356956 14.367283 -19.491137 140.872437 52.278004 47.106758 92.579636
[R_front_hand03_01]
14 87.286232 -22.307278 -0.143439 0.092230 -0.445770 -66.286453 90.091743
15 87.286232 -22.307278 -0.143439 0.074609 -0.448192 -64.587509 90.091743
[R_front_hand01_02]
14 71.020905 0.000060 0.000119 0.002323 -0.000334 106.381714 71.020905
15 71.020905 0.000060 0.000119 0.002323 -0.000334 106.381714 71.020905
[R_front_hand02_02]
14 71.020844 -0.000030 -0.000119 0.002323 -0.000334 106.381714 71.020836
15 71.020844 -0.000030 -0.000119 0.002323 -0.000334 106.381714 71.020836
[R_front_hand03_02]
14 71.020905 0.000000 0.000030 0.002323 -0.000334 106.381714 71.020905
15 71.020905 0.000000 0.000030 0.002323 -0.000334 106.381714 71.020905
[null_rope01_connect]
14 328.732483 0.000000 -0.000238 -144.024567 -55.090027 -171.786804 328.732483
15 328.732483 0.000000 -0.000238 -144.107010 -52.647381 -171.180084 328.732483
[Rope1_Seg01]
14 0.000038 -0.000215 0.000105 45.854095 0.483909 -119.000420 0.000243
15 0.000038 -0.000229 0.000102 60.155369 -22.045898 -129.672775 0.000253
[Rope1_Seg02]
14 139.999863 -0.000179 0.000000 106.594444 5.945679 -35.429401 139.999863
15 139.999863 -0.000179 0.000000 34.768635 -5.454478 -30.066339 139.999863
[Rope1_Seg03]
14 139.999924 0.000060 -0.000060 10.853960 -27.610226 13.129347 139.999924
15 139.999924 0.000060 -0.000060 48.359394 -29.881090 -28.449846 139.999924
[Rope1_Seg04]
14 139.999924 -0.000060 -0.000119 6.066336 -15.086942 2.460257 139.999924
15 139.999924 -0.000060 -0.000119 9.057882 -18.715809 -2.001824 139.999924
[Rope1_Seg05]
14 139.999832 0.000119 -0.000060 11.906679 -27.323381 -8.357562 139.999832
15 139.999832 0.000119 -0.000060 11.817699 -27.418854 -11.299307 139.999832
[Rope1_Seg06]
14 139.999954 0.000119 -0.000060 2.868825 -22.076681 -2.604584 139.999954
15 139.999954 0.000119 -0.000060 3.924893 -28.577610 -7.323173 139.999954
[Rope1_Seg07]
14 139.999985 0.000060 0.000000 -0.286430 -9.301366 0.064661 139.999985
15 139.999985 0.000060 0.000000 -0.867390 -11.440496 -1.596528 139.999985
[Rope1_Seg09]
14 121.602913 0.000119 -0.000089 -89.793175 -1.359789 0.847147 121.602913
15 121.602913 0.000119 -0.000089 -89.793175 -1.359789 0.847147 121.602913
[L_mid_hand01]
14 103.859421 1.038730 8.195221 110.016693 -43.583382 -14.630747 104.187431
15 103.859421 1.038730 8.195221 109.301483 -41.408253 -13.576799 104.187431
[L_mid_hand02]
14 105.572853 -4.139662 -10.864139 -148.402451 33.171711 -41.059570 106.211075
15 105.572853 -4.139662 -10.864139 -147.153671 31.943630 -38.737034 106.211075
[L_mid_hand03]
14 104.641464 17.579376 -3.913581 -13.575854 13.082141 47.042400 106.179977
15 104.641464 17.579376 -3.913581 -14.087292 12.528420 44.741467 106.179977
[null_rope02_connect]
14 328.732849 0.000179 -0.000119 -85.149132 72.094238 43.487740 328.732849
15 328.732849 0.000179 -0.000119 -78.731659 72.536156 48.647232 328.732849
[Rope2_Seg01]
14 0.000050 0.000105 0.000000 47.601295 -4.536367 -52.970505 0.000117
15 0.000051 0.000102 0.000000 11.025491 3.604045 -38.836166 0.000114
[Rope2_Seg02]
14 139.999741 -0.000060 -0.000119 -144.660400 39.691917 -7.606130 139.999756
15 139.999741 -0.000060 -0.000119 -104.708984 36.473026 18.023130 139.999756
[Rope2_Seg03]
14 140.000107 0.000030 0.000000 -14.911515 -10.268294 13.711715 140.000107
15 140.000107 0.000030 0.000000 -10.377622 -7.856622 12.839483 140.000107
[Rope2_Seg04]
14 139.999802 0.000000 -0.000060 -1.481902 -5.806720 3.752174 139.999802
15 139.999802 0.000000 -0.000060 -0.655189 -7.453712 3.915908 139.999802
[Rope2_Seg05]
14 139.999985 -0.000060 0.000119 0.089310 -12.002585 4.702982 139.999985
15 139.999985 -0.000060 0.000119 1.167632 -19.787634 4.518728 139.999985
[Rope2_Seg06]
14 139.999893 -0.000030 -0.000119 -5.476102 -40.159267 17.357647 139.999893
15 139.999893 -0.000030 -0.000119 -2.774157 -33.668812 9.071424 139.999893
[Rope2_Seg07]
14 139.999893 0.000060 -0.000060 -4.103799 -29.349915 12.606187 139.999893
15 139.999893 0.000060 -0.000060 -2.466296 -18.178757 5.081692 139.999893
[Rope2_Seg09]
14 121.338966 0.000089 -0.000060 33.793236 -1.359788 -0.847141 121.338966
15 121.338966 0.000089 -0.000060 33.793236 -1.359788 -0.847141 121.338966
[R_mid_hand01]
14 104.680779 11.144459 -10.335981 -29.481638 39.038574 50.818577 105.778534
15 104.680779 11.144459 -10.335981 -31.399162 37.614391 47.725441 105.778534
[R_mid_hand02]
14 104.070427 2.443552 8.231699 64.792824 -54.379646 21.475639 104.424065
15 104.070427 2.443552 8.231699 66.339699 -51.820030 19.540783 104.424065
[R_mid_hand03]
14 106.028137 -11.221827 -5.996406 -172.901596 14.168235 -60.324333 106.788818
15 106.028137 -11.221827 -5.996406 -172.206848 13.802570 -57.446243 106.788818
[spine02]
14 129.756927 0.001550 0.000119 -0.913734 -3.958480 5.127228 129.756927
15 129.756927 0.001550 0.000119 -0.884992 -3.962267 4.725039 129.756927
[spine03]
14 78.614014 0.081693 -4.898998 1.111813 4.125522 5.235122 78.766556
15 78.614006 0.081685 -4.898999 1.131184 4.122500 5.498393 78.766541
[pelvis]
14 169.435242 0.051022 0.000000 0.016079 -0.190555 -8.651655 169.435257
15 169.435242 0.051022 0.000000 0.010297 -0.190976 -8.140871 169.435257
[null_rope03_connect]
14 -1.257226 -2.466202 137.391083 -150.697815 -77.298607 -122.432060 137.418976
15 -1.257226 -2.466202 137.391083 -152.139359 -75.885025 -120.988419 137.418976
[null_rope04_connect]
14 -1.259640 -2.480268 -137.844437 -150.697815 -77.298607 -122.432060 137.872513
15 -1.259640 -2.480268 -137.844437 -152.139359 -75.885025 -120.988419 137.872513
[Rope3_Seg01]
14 0.000053 -0.000215 0.000000 -137.644470 -53.550987 -76.923096 0.000222
15 0.000051 -0.000229 0.000000 -144.269363 -47.846008 -65.938538 0.000234
[Rope3_Seg02]
14 139.999924 -0.000119 0.000060 13.495186 -26.995529 -21.254534 139.999924
15 139.999924 -0.000119 0.000060 13.627963 -25.041042 -16.303453 139.999924
[Rope3_Seg03]
14 139.999924 -0.000119 0.000119 25.016539 -22.283672 -6.389524 139.999924
15 139.999924 -0.000119 0.000119 23.061150 -20.548355 -3.557222 139.999924
[Rope3_Seg04]
14 139.999924 0.000119 0.000000 15.218554 -8.880237 2.727183 139.999924
15 139.999924 0.000119 0.000000 13.915802 -8.773509 2.502195 139.999924
[Rope3_Seg05]
14 139.999924 -0.000238 0.000060 12.850666 -8.905101 -4.048541 139.999924
15 139.999924 -0.000238 0.000060 22.624586 -13.676993 -3.884391 139.999924
[Rope3_Seg06]
14 139.999893 -0.000119 -0.000060 99.631065 -24.433374 -13.469305 139.999893
15 139.999893 -0.000119 -0.000060 85.371338 -35.739723 -1.770171 139.999893
[Rope3_Seg07]
14 139.999771 0.000060 -0.000119 35.198296 -10.631404 30.777594 139.999771
15 139.999771 0.000060 -0.000119 16.248386 -2.330280 24.865742 139.999771
[Rope3_Seg08]
14 139.999985 -0.000060 0.000000 3.524937 4.723477 12.337699 139.999985
15 139.999985 -0.000060 0.000000 3.251699 2.246089 9.970060 139.999985
[Rope3_Seg09]
14 90.185997 -0.000179 -0.000060 89.793228 -1.359877 -0.847183 90.185997
15 90.185997 -0.000179 -0.000060 89.793228 -1.359877 -0.847183 90.185997
[R_rear_hand01]
14 103.366196 -6.073594 -10.757982 -169.405167 22.402496 -53.260654 104.101845
15 103.366196 -6.073594 -10.757982 -168.130341 21.777140 -49.871906 104.101845
[R_rear_hand02]
14 100.509819 12.039542 -7.992327 -25.038765 30.595232 50.476662 101.543350
15 100.509819 12.039542 -7.992327 -26.694445 29.195726 47.151855 101.543350
[R_rear_hand03]
14 101.539970 5.215704 5.435467 80.458870 -53.275658 11.535563 101.819031
15 101.539970 5.215704 5.435467 81.113556 -50.109848 10.702383 101.819031
[Rope4_Seg01]
14 -0.000010 -0.000163 -0.000105 42.351833 -30.635216 -84.944885 0.000194
15 -0.000010 -0.000178 -0.000102 41.752762 -30.389275 -83.799873 0.000205
[Rope4_Seg02]
14 139.999985 0.000060 0.000119 0.365570 -27.168022 4.982718 139.999985
15 139.999985 0.000060 0.000119 0.009452 -26.117701 4.783423 139.999985
[Rope4_Seg03]
14 139.999924 0.000000 -0.000238 11.292036 -33.182552 8.424984 139.999924
15 139.999924 0.000000 -0.000238 11.870729 -36.441597 7.958003 139.999924
[Rope4_Seg04]
14 139.999985 0.000000 0.000119 13.380114 -14.147747 7.500099 139.999985
15 139.999985 0.000000 0.000119 17.456650 -17.491713 8.452766 139.999985
[Rope4_Seg05]
14 139.999802 -0.000060 -0.000119 24.825447 -16.792326 11.788952 139.999802
15 139.999802 -0.000060 -0.000119 22.610342 -11.985082 12.172676 139.999802
[Rope4_Seg06]
14 139.999924 0.000000 0.000060 38.991627 -16.658484 29.682524 139.999924
15 139.999924 0.000000 0.000060 25.818716 -7.462381 20.037138 139.999924
[Rope4_Seg07]
14 139.999802 0.000000 0.000000 11.722024 3.837011 16.827791 139.999802
15 139.999802 0.000000 0.000000 10.766923 1.323877 12.595687 139.999802
[Rope4_Seg08]
14 139.999924 0.000000 0.000119 1.710255 3.076968 6.770867 139.999924
15 139.999924 0.000000 0.000119 2.611094 1.869957 6.281374 139.999924
[Rope4_Seg09]
14 90.185791 0.000060 0.000060 -135.617828 2.228885 0.850567 90.185791
15 90.185791 0.000060 0.000060 -135.617828 2.228885 0.850567 90.185791
[L_rear_hand01]
14 101.696655 -8.392275 -7.654577 -31.553307 -23.761135 143.711090 102.329041
15 101.696655 -8.392275 -7.654577 -31.194277 -24.256094 142.819397 102.329041
[L_rear_hand02]
14 102.726799 -1.568258 5.773216 82.664513 39.085827 171.495636 102.900848
15 102.726799 -1.568258 5.773216 82.562164 40.032185 171.334641 102.900848
[L_rear_hand03]
14 104.552910 9.721220 -10.420293 -164.089569 -19.094524 -141.662735 105.519653
15 104.552910 9.721220 -10.420293 -164.408707 -19.357925 -140.691956 105.519653
